<svg xmlns="http://www.w3.org/2000/svg" width="420" height="420" fill="none" viewBox="0 0 420 420">
    <path fill="#009FE8" d="M257.075 141.19v-20.149c0-2.176-1.73-4.002-3.964-4.142-8.359-.351-28.176-2.036-42.084-9.267-13.908 7.231-33.725 8.916-42.084 9.267-2.234.14-3.964 1.966-3.964 4.142v20.149c0 56.024 46.048 71.259 46.048 71.259s46.048-15.235 46.048-71.259z"/>
    <path fill="#fff" fill-rule="evenodd" d="M216.864 139.715v-8.565h-5.332v8.284h-4.324v-8.354h-5.333l.072 8.495c-1.153 0-10.665.07-10.665.07v5.406h6.774v27.31h-5.981l-.072 6.248s8.431-.07 9.656 0v8.565h5.261v-8.495c1.441.071 2.882.071 4.251.071v8.424h5.333v-8.565c8.936-.421 15.133-2.597 15.998-10.741.648-6.53-2.45-9.548-7.495-10.742 3.099-1.404 5.045-4.072 4.612-8.565-.576-6.108-5.909-8.214-12.755-8.846zm-9.584 32.716v-11.373c.33 0 .727-.008 1.176-.017 4.368-.087 13.662-.273 13.597 5.774-.066 5.843-9.416 5.696-13.714 5.628-.401-.006-.758-.012-1.059-.012zm.072-26.888v10.32c.188.004.402.011.637.019 3.464.114 11.618.382 11.686-5.074.065-5.534-7.679-5.362-11.332-5.281-.379.008-.714.016-.991.016z" clip-rule="evenodd"/>
    <path fill="#666" fill-rule="evenodd" d="M124.462 299.03c-1.802 3.019-4.252 5.476-7.206 7.301-3.027 1.825-6.414 3.159-10.233 4.002-3.819.772-7.783 1.193-11.746 1.193H61.912v-81.649h33.365c3.243 0 6.557.351 9.944.983 3.387.632 6.486 1.755 9.224 3.37 2.739 1.614 4.973 3.721 6.774 6.388 1.73 2.668 2.594 6.108 2.594 10.25 0 4.564-1.225 8.285-3.819 11.233-2.522 2.949-5.837 5.125-9.945 6.389v.211c2.379.421 4.612 1.123 6.702 2.176 2.09 1.053 3.892 2.387 5.405 4.002 1.513 1.615 2.738 3.51 3.675 5.687.865 2.106 1.369 4.493 1.369 7.231 0 4.493-.937 8.214-2.738 11.233zm-23.492-51.531c-2.162-1.264-5.405-1.896-9.657-1.896H81.37v16.85H92.25c3.82 0 6.702-.773 8.792-2.247 2.162-1.545 3.17-3.791 3.17-6.67 0-2.738-1.08-4.774-3.242-6.037zm-8.36 29.416c4.396 0 7.855.632 10.449 1.966 2.595 1.263 3.892 3.65 3.892 7.02 0 2.036-.433 3.651-1.297 4.915-.865 1.263-2.018 2.246-3.387 2.948-1.369.632-2.955 1.124-4.612 1.404-1.658.281-3.315.422-4.9.422H81.369v-18.675H92.61zM150.836 243.144c1.009-.913 1.801-2.036 2.378-3.3.576-1.263.865-2.597.865-4.072 0-1.474-.289-2.878-.793-4.212-.577-1.264-1.369-2.387-2.378-3.3-.937-.912-2.162-1.614-3.531-2.176-1.369-.491-2.811-.772-4.324-.772-1.585 0-3.026.281-4.396.842-1.297.562-2.522 1.334-3.531 2.247-1.009.913-1.801 2.036-2.378 3.3-.576 1.263-.864 2.597-.864 4.001 0 2.808 1.008 5.266 3.17 7.302 2.162 2.106 4.756 3.089 7.927 3.089 1.513 0 2.955-.211 4.324-.773 1.369-.561 2.522-1.263 3.531-2.176zm1.874 10.953h-19.457v57.428h19.457v-57.428z" clip-rule="evenodd"/>
    <path fill="#666" d="M187.876 290.113c0 2.738.505 4.704 1.586 6.108 1.081 1.334 2.954 2.036 5.765 2.036.936 0 1.945-.071 3.026-.211 1.081-.14 1.946-.351 2.666-.702l.217 13.831c-1.37.491-3.027.842-5.117 1.193-2.09.351-4.107.491-6.197.491-3.964 0-7.278-.491-9.945-1.474-2.666-.983-4.828-2.317-6.485-4.142-1.586-1.825-2.811-3.932-3.531-6.459-.721-2.527-1.081-5.265-1.081-8.354v-24.292h-9.296v-14.041h9.368v-15.094h19.096v15.094h13.836v14.041h-13.908v21.975zM254.102 313.632c-6.702 0-12.899-1.053-18.52-3.089-5.621-2.107-10.521-4.985-14.557-8.776-4.035-3.791-7.278-8.284-9.512-13.55-2.306-5.265-3.459-11.163-3.459-17.622 0-6.529 1.153-12.426 3.531-17.762 2.306-5.335 5.549-9.829 9.656-13.549 4.108-3.721 8.936-6.6 14.413-8.566 5.549-1.965 11.458-3.018 17.871-3.018 6.63 0 12.755.982 18.448 2.948s10.305 4.564 13.836 7.934l-12.755 14.181c-1.946-2.246-4.612-4.072-7.783-5.476-3.242-1.404-6.918-2.106-11.025-2.106-3.531 0-6.846.632-9.801 1.895-3.026 1.264-5.62 3.019-7.782 5.336-2.234 2.247-3.964 4.985-5.117 8.074-1.225 3.089-1.873 6.529-1.873 10.18 0 3.791.576 7.231 1.657 10.39 1.081 3.159 2.738 5.897 4.9 8.144 2.162 2.247 4.829 4.072 8.071 5.336 3.171 1.263 6.846 1.895 10.954 1.895 2.378 0 4.612-.14 6.774-.491 2.089-.351 4.107-.913 5.909-1.685v-14.884H251.94v-16.077h34.59v43.247c-4.252 2.106-9.008 3.791-14.485 5.125s-11.458 1.966-17.943 1.966z"/>
    <path fill="#666" fill-rule="evenodd" d="M349.655 305.067c3.027-2.668 5.405-5.897 7.134-9.688 1.73-3.862 2.594-8.074 2.594-12.778 0-4.704-.864-8.916-2.594-12.707-1.801-3.721-4.107-6.951-7.134-9.548-3.026-2.598-6.485-4.564-10.449-5.968-3.963-1.404-8.215-2.106-12.683-2.106-4.396 0-8.647.702-12.611 2.106-4.035 1.334-7.494 3.37-10.449 5.968-2.954 2.597-5.332 5.757-7.062 9.548-1.729 3.791-2.594 8.003-2.594 12.707 0 4.704.865 8.986 2.594 12.778 1.73 3.791 4.108 7.02 7.062 9.688 2.955 2.668 6.486 4.704 10.449 6.178 3.964 1.474 8.215 2.176 12.611 2.176 4.54 0 8.72-.702 12.683-2.176 3.964-1.474 7.423-3.51 10.449-6.178zm-12.611-32.575c1.225 1.404 2.09 2.948 2.739 4.703.648 1.756.936 3.581.936 5.406 0 1.826-.288 3.651-.864 5.406-.577 1.755-1.514 3.37-2.667 4.774-1.225 1.475-2.666 2.598-4.395 3.44-1.73.843-3.748 1.264-6.054 1.264s-4.323-.421-6.053-1.264c-1.729-.842-3.243-2.036-4.396-3.44-1.225-1.404-2.089-3.019-2.666-4.774-.576-1.755-.865-3.58-.865-5.406 0-1.825.289-3.65.865-5.406.577-1.825 1.441-3.369 2.594-4.703 1.153-1.334 2.595-2.458 4.324-3.3 1.729-.842 3.747-1.264 6.053-1.264s4.324.422 6.053 1.264c1.73.842 3.243 1.966 4.396 3.3z" clip-rule="evenodd"/>
</svg>
