<svg width="144" height="30" viewBox="0 0 144 30" fill="none" xmlns="http://www.w3.org/2000/svg">
    <path fill-rule="evenodd" clip-rule="evenodd" d="M32.9668 13.2845C33.8372 12.0821 35.1368 11.6564 36.4741 11.6564C39.2497 11.6564 41.2304 13.5727 41.2304 16.3911V24.1193H37.9377V17.4432C37.9377 15.6895 37.0543 14.7251 35.5532 14.7251C34.1402 14.7251 32.9668 15.6396 32.9668 17.4682V24.1193H29.6738V6.06982H32.9668V13.2845ZM47.2649 18.0445C47.2649 19.898 48.4888 21.3886 50.4191 21.3886C52.299 21.3886 53.5732 19.9609 53.5732 18.0445C53.5732 16.128 52.299 14.7001 50.4191 14.7001C48.4888 14.7001 47.2649 16.1907 47.2649 18.0445ZM49.8134 11.6564C51.4915 11.6564 52.6649 12.3327 53.4724 13.3221V11.9821H56.6896V24.1193H53.4724V22.779C52.6774 23.756 51.4915 24.4326 49.8134 24.4326C46.4451 24.4326 43.8964 21.6893 43.8964 18.0445C43.8964 14.3993 46.4451 11.6564 49.8134 11.6564ZM63.1634 13.3097V11.9821H59.9715V24.1193H63.2645V17.5057C63.2645 15.7022 64.3115 14.7752 65.8382 14.7752C66.5067 14.7752 67.289 14.9255 67.8316 15.1634L68.3235 11.9192C67.8694 11.7564 67.3142 11.6564 66.6078 11.6564C65.1064 11.6564 63.933 12.1699 63.1634 13.3097ZM76.4788 21.3886C77.8919 21.3886 78.9768 20.5997 78.9768 18.6581V11.9821H82.2571V18.9463C82.2571 22.779 79.532 24.4326 76.4788 24.4326C73.413 24.4326 70.688 22.779 70.688 18.9463V11.9821H73.9807V18.6581C73.9807 20.5997 75.0533 21.3886 76.4788 21.3886Z" fill="black"/>
    <path fill-rule="evenodd" clip-rule="evenodd" d="M15.6853 0.325928L9.90766 3.66163L9.90652 3.66082L0 9.38039V20.8194L5.7794 24.1562H5.77875L0 27.4926L4.12777 29.8756L9.90652 26.5392V26.5388L19.8129 20.8194V9.38039L14.0354 6.04468L19.8129 2.70913L15.6853 0.325928ZM4.12776 18.4363V11.7634L9.90651 8.42707L15.6853 11.7634V18.4363L9.90651 21.7727L4.12776 18.4363Z" fill="url(#paint0_linear)"/>
    <defs>
        <linearGradient id="paint0_linear" x1="-3.14556" y1="18.9399" x2="15.697" y2="27.4108" gradientUnits="userSpaceOnUse">
            <stop stop-color="#933FEF"/>
            <stop offset="1" stop-color="#280BCC"/>
        </linearGradient>
    </defs>
</svg>
