<svg xmlns="http://www.w3.org/2000/svg" width="14" height="14" fill="none" viewBox="0 0 14 14">
    <path fill="#171F46" fill-rule="evenodd" d="M7 0C3.14 0 0 3.14 0 7s3.14 7 7 7 7-3.14 7-7-3.14-7-7-7zm5.553 6.3h-1.935c-.082-1.515-.511-3.01-1.255-4.37 1.707.799 2.945 2.43 3.19 4.37zM7.37 1.42C8.095 2.374 9.07 4.065 9.21 6.3H4.92c.098-1.817.697-3.52 1.717-4.882.12-.007.24-.018.363-.018.125 0 .248.011.37.019zm-2.69.49C3.994 3.233 3.596 4.734 3.522 6.3H1.448c.247-1.957 1.504-3.6 3.234-4.39zM1.449 7.7H3.53c.095 1.665.466 3.135 1.09 4.361C2.921 11.259 1.69 9.633 1.447 7.7zm5.167 4.881c-.98-1.188-1.56-2.854-1.686-4.881h4.279c-.146 1.941-.782 3.637-1.822 4.88-.128.009-.255.02-.386.02-.13 0-.257-.011-.385-.019zm2.807-.54c.668-1.256 1.076-2.731 1.184-4.341h1.944c-.24 1.917-1.453 3.533-3.128 4.34z" clip-rule="evenodd"/>
</svg>
