<svg xmlns="http://www.w3.org/2000/svg" width="18" height="16" fill="none" viewBox="0 0 18 16">
    <path fill="#54A295" fill-rule="evenodd" d="M10.797 8.965v-.002c-.1.007-.62.037-1.777.037-.925 0-1.575-.026-1.805-.037v.003C3.656 8.812 1 8.206 1 7.483 1 6.758 3.657 6.154 7.215 6v2.363c.233.015.9.054 1.82.054 1.105 0 1.66-.045 1.763-.054V6C14.35 6.154 17 6.76 17 7.482c0 .721-2.652 1.327-6.202 1.482m.031-3.591v-2.13h5.045V0H2.138v3.244h5.045V5.37C3.083 5.553 0 6.336 0 7.275c0 .94 3.084 1.723 7.183 1.906V16h3.648V9.18C14.923 8.998 18 8.215 18 7.277c0-.938-3.077-1.721-7.17-1.904" clip-rule="evenodd"/>
</svg>
